/* XPM */
static char *e43422a767c64ebdb41b9822d3100981CKmeauqxwfyaZKlv[] = {
/* columns rows colors chars-per-pixel */
"64 64 224 2 ",
"   c #000201",
".  c #0C0100",
"X  c #000904",
"o  c #000609",
"O  c #000A09",
"+  c #0D0904",
"@  c #190400",
"#  c #02140E",
"$  c #1B1608",
"%  c #001B1C",
"&  c #131B18",
"*  c #251001",
"=  c #351805",
"-  c #332B1D",
";  c #161F26",
":  c #002122",
">  c #022E2E",
",  c #063837",
"<  c #092A2A",
"1  c #39352B",
"2  c #243936",
"3  c #3A3A3A",
"4  c #561C00",
"5  c #451C01",
"6  c #4A220C",
"7  c #5E2C0B",
"8  c #5B2306",
"9  c #4C2312",
"0  c #662301",
"q  c #6E2500",
"w  c #6E2B02",
"e  c #662C0A",
"r  c #6D2C0A",
"t  c #652A06",
"y  c #732400",
"u  c #782501",
"i  c #742B02",
"p  c #7B2C03",
"a  c #722E0A",
"s  c #7B2D09",
"d  c #68310C",
"f  c #743103",
"g  c #7C3105",
"h  c #73300B",
"j  c #7D3109",
"k  c #662D12",
"l  c #762F11",
"z  c #7D3912",
"x  c #504F3F",
"c  c #145154",
"v  c #34534F",
"b  c #156D6D",
"n  c #2D6360",
"m  c #357071",
"M  c #575345",
"N  c #585B5B",
"B  c #524C44",
"V  c #7D5847",
"C  c #6C5D52",
"Z  c #6E6353",
"A  c #5B5D64",
"S  c #437C79",
"D  c #55787B",
"F  c #506164",
"G  c #6A7275",
"H  c gray50",
"J  c #747572",
"K  c #696C64",
"L  c #48664F",
"P  c #832D02",
"I  c #8A2E00",
"U  c #863303",
"Y  c #893200",
"T  c #84340A",
"R  c #89350A",
"E  c #84380A",
"W  c #8D3E1B",
"Q  c #863913",
"!  c #923F18",
"~  c #8E4018",
"^  c #92411B",
"/  c #964419",
"(  c #9A430F",
")  c #A34819",
"_  c #9A4B26",
"`  c #9C5027",
"'  c #AB5D37",
"]  c #AC5A39",
"[  c #A9573A",
"{  c #B35C35",
"}  c #AD5325",
"|  c #AA623C",
" . c #B4643D",
".. c #BC643E",
"X. c #BB6639",
"o. c #C3663E",
"O. c #C66B3B",
"+. c #DC713D",
"@. c #C0612D",
"#. c #9B5D47",
"$. c #805948",
"%. c #91634A",
"&. c #B56541",
"*. c #BC6744",
"=. c #B76946",
"-. c #BC6945",
";. c #BB6749",
":. c #B66B4B",
">. c #BC6A49",
",. c #B0644C",
"<. c #B57255",
"1. c #B8775A",
"2. c #AC6D4F",
"3. c #C26743",
"4. c #C36A44",
"5. c #CB6D45",
"6. c #C36C49",
"7. c #CC6E49",
"8. c #D46E45",
"9. c #D26E49",
"0. c #CE7246",
"q. c #CD714A",
"w. c #CA7948",
"e. c #D27045",
"r. c #DF7A47",
"t. c #D1724A",
"y. c #DE7B4A",
"u. c #D67842",
"i. c #DE7C50",
"p. c #E37646",
"a. c #E37846",
"s. c #EC7F43",
"d. c #E27B4A",
"f. c #EA7D4A",
"g. c #F17F49",
"h. c #E8813E",
"j. c #B88877",
"k. c #BA917E",
"l. c #B0866E",
"z. c #DF8856",
"x. c #DE804E",
"c. c #EE854D",
"v. c #EE884D",
"b. c #E98148",
"n. c #FD8645",
"m. c #FC8945",
"M. c #F3844D",
"N. c #FC864C",
"B. c #F8884B",
"V. c #EC8450",
"C. c #E58857",
"Z. c #F38551",
"A. c #F78852",
"S. c #557982",
"D. c #3C9C9E",
"F. c #3A8684",
"G. c #5C999E",
"H. c #58999A",
"J. c #4F8A8D",
"K. c #6C898E",
"L. c #758989",
"P. c #6B8B96",
"I. c #66959C",
"U. c #6C959C",
"Y. c #65999C",
"T. c #699598",
"R. c #71939D",
"E. c #75979A",
"W. c #718E90",
"Q. c #5D9DA5",
"!. c #6C93A1",
"~. c #6898A3",
"^. c #7394A2",
"/. c #7A9BA4",
"(. c #54A7AE",
"). c #5AA2AA",
"_. c #54A9AC",
"`. c #5AA7A7",
"'. c #5DAEB5",
"]. c #54AAB3",
"[. c #5BB1B5",
"{. c #56B5BA",
"}. c #50B0B3",
"|. c #66AEB6",
" X c #64B5B3",
".X c #6BABAE",
"XX c #63C1BE",
"oX c #5ABEC4",
"OX c #65BDC3",
"+X c #56C9C7",
"@X c #5FCDD1",
"#X c #5AD7DC",
"$X c #57D9DA",
"%X c #69CBCE",
"&X c #66CECF",
"*X c #67D6D9",
"=X c #71DEDF",
"-X c #58DCE0",
";X c #6DDEE4",
":X c #72DFE1",
">X c #5DECEC",
",X c #5CE7EA",
"<X c #5EF2EB",
"1X c #5DEEF1",
"2X c #4CF8F3",
"3X c #5CF2F4",
"4X c #55FBFC",
"5X c #59F9FD",
"6X c #55F6F7",
"7X c #6EE6E9",
"8X c #63ECED",
"9X c #6BEAEC",
"0X c #6BE4E6",
"qX c #73E5EB",
"wX c #72EAEB",
"eX c #77E2E4",
"rX c #66F1EF",
"tX c #63EDF2",
"yX c #6BECF1",
"uX c #63F5F3",
"iX c #64F5FA",
"pX c #A6ABA5",
"aX c #959393",
"sX c #C19A88",
/* pixels */
"H H H H H H H H H H H H H H H H H H H H H H H H H H H H H H H H H H H H H H H H H H H H H H H H H H H H H H H H H H H H H H H H ",
"H H H H H H H H H H H H H H H H H H H H H H H H H H H O O O O O O # H H H H H H H H H H H H H H H H H H H H H H H H H H H H H H ",
"H H H H H H H H H H H H H H H H H H H H H H H H H o O iX5X5X5X5X4X6Xo O H H H H H H H H H H H H H H H H H H H H H H H H H H H H ",
"H H H H H H H H H H H H H H H H H H H H H H H , b eXqX;X].I.U.T.}.;XeX:Xc > H H H H H H H H H H H H H H H H H H H H H H H H H H ",
"H H H H H H H H H H H H H H H H H H H H   J.F.3XoXE.E.T.uXY.U.T.yXG.R.U.OX5XF.S J H H H H H H H H H H H H H H H H H H H H H H H ",
"H H H H H H H H H H H H H H H H H H S +X[.[.'.{.&XU.U.I., ; ; & , U.U.U.*X[.'._.+Xn n H H H H H H H H H H H H H H H H H H H H H ",
"H H H H H H H H H H H H H H H H H c <X{.~.~.!.Y.|.m + + t r r r k + O H._.T.R.~.+X>X>X> H H H H H H H H H H H H H H H H H H H H ",
"H H H H H H H H H H H H H H H H : *XG.*X).)./.E.X = e k 0 q q q q r r $ X E./.).%XQ.Q.=X# H H H H H H H H H H H H H H H H H H H ",
"H H H H H H H H H H H H H H H O eXR.R.U.eXeX. @ i q u y M.>.>.>.-.y u y q . X 0XT.^.^.^.9Xo H H H H H H H H H H H H H H H H H H ",
"H H H H H H H H H H H H H H H 4X(.U.U.K.$ $ i i s ` q.y M.4.-.-.-.y Z.) j i d $ P.R.R.U.(.wXK H H H H H H H H H H H H H H H H H ",
"H H H H H H H H H H H H H H n #X*X|.K.- 7 7 ( ! *.-.q.y M.>.-.-.-.y M.8.4.! ^ t 3 P.P.|.$X*XD H H H H H H H H H H H H H H H H H ",
"H H H H H H H H H H H H H aX XU.Y.(.1 0 q q n.9.*.4.q.y M.>.*.*.-.y v.5.7.9.t.y 8 1 1  XT.Q.D.pXH H H H H H H H H H H H H H H H ",
"H H H H H H H H H H H H H m }.!.R.S.= ` i i n.8.4.4.o.y A.4.6.>.-.y M.3.9.9.t.T } * * K.U.U.[.m H H H H H H H H H H H H H H H H ",
"H H H H H H H H H H H H H b {.~.W.& r [ p p n.o.7.4...y M.3.9.3.*.y M.-.7.9.4.E @.t t $ T.Y.oXc H H H H H H H H H H H H H H H H ",
"H H H H H H H H H H H H % %X=X4XU.@ _ ;.p p n.3.7.5.*.y M.4.e.-.-.y M.*.6.8.-.T d.Q Q @ Y.uX*X#X: H H H H H H H H H H H H H H H ",
"H H H H H H H H H H H H % %X!.!.. f _ *.p p n.4.7.7.*.y M.4.e.3.-.y M.-.>.8.4.R y.^ ^ a X U.I.$X: H H H H H H H H H H H H H H H ",
"H H H H H H H H H H H H % %X~.~.. z -.=.p p n.-.4.4.-.y M.4.5.3.>.y M.-.-.e.5.R y.>.>.l   ^.U.$X: H H H H H H H H H H H H H H H ",
"H H H H H H H H H H H F D..XE.2 5 T ;.;.p p n.-.4.6.*.y M.4.7.4.*.y M.-.*.e.t.T r.-.-.a 6 2 R.|.H.A H H H H H H H H H H H H H H ",
"H H H H H H H H H H H O 4X8X,XX i u.;.3.s s n.*.>.-.>.y N.8.6.q.>.y M.>.-.e.t.R r.-.-. .r o ,X8XiX  H H H H H H H H H H H H H H ",
"H H H H H H H H H H H O tX).Q.  s b.;...p p n.*.*.>.>.y m.e.4.q.3.u M.>.-.7.q.R a.>.>.>.a   `.).9X  H H H H H H H H H H H H H H ",
"H H H H H H H H H H H O tXY.U.  s V.>.>.s s A.-.;.;.>.y v.q.>.q.-.y Z.>.>.>.>.E i.>.>.>.l   U.T.wXX H H H H H H H H H H H H H H ",
"H H H H H H H H H H H O 1XU.L.T Y I Y Y I I I Y I I I I I Y Y Y Y Y I I I I I I Y I I I Y z L.R.7X  H H H H H H H H H H H H H H ",
"H H H H H H H H H H H O 3XOXM n.p.a.C.x.p.p.a.a.b.C.a.d.a.p.z.d.a.d.d.r.C.r.a.r.d.z.z.y.p.y.Z XX9XX H H H H H H H H H H H H H H ",
"H H H H H H H H H H H O 3X[.x m.*.-.<.:.>.>.*.-.:.<.*.*.*.*.<.:.>.>.>.;.1.>.-.;.;.<.<.:.*.-.C [.8XX H H H H H H H H H H H H H H ",
"H H H H H H H H H H H O tXU.W.f i s p p s s a s p j s j s s s a a s a f h s f p s s s s s k W.U.qXX H H H H H H H H H H H H H H ",
"H H H H H H H H H H S.O 5XU.U.@ a y y q i i y q q q y a y q q y y y q y q q q y y q q y a . R.R.wX  H H H H H H H H H H H H H H ",
"H H H H H H H H %.H aXO 3X~.G.  p V.>.>.p p A.9.-.-.>.y M.t.>.>.e.u v.>.>.>.6.R d.q.q.4.r X G.Q.0XX H H H H H H H H H H H H H H ",
"H H H H H H H H %.%.aXO 4X0X:X  p s.>.=.p p n.5.5.-.>.q N.8.3.*.t.u M.*.*.>.>.E d.5.5.5.a o ;X=XrX  H H H H H H H H H H H H H H ",
"H H H H H H H H aXaXaXO >X~.I.  p b.,.*.p p N.3.9.>.>.q M.7.7.*.t.u M.*.*.>.>.R f.q.q.q.a   I.T.9Xo H H H H H H H H H H H H H H ",
"H H H H H H H H H H aXO 8XU.U.  p y.Z Z r r n.3.9.>.>.y M.3.4.7.4.i M.>.6.>.>.R f.4.4.q.a   U.T.7Xo H H H H H H H H H H H H H H ",
"H H H H H H H H S.S.%.O 1XI.U.  f w.G N 7 7 n.3.4.4.*.y M.4.8.e.-.u M.>.7.-.>.R f.4.4.0.a   !.U.9XX H H H H H H H H H H H H H H ",
"H H H H H H H H S.S.%.O 2X9X9X  P b.Z %.a a n.*.6.q.*.y M.4.5.e.-.u M.-.7.*.>.R f.4.4.5.a X 8XyXuXo H H H H H H H H H H H H H H ",
"H H H H H H H H H H H O 8XT.T.  P s.$.#.a i n...;.5.*.y M.-.7.8.*.u M.>.q.*.>.R f.q.q.e.a   R.T.qXo H H H H H H H H H H H H H H ",
"H H H H H H H H H H H O 8XU.U.  g s.V #.i i m.*.;.5.o.y M.>.7.8.*.u M.>.q.>.>.R f.t.t.>.a   U.U.wXo H H H H H H H H H H H H H H ",
"H H H H H H H H H H H O 8XU.U.  g s.V #.i i m.*.;.5.o.y M.>.7.8.*.i M.*.q.>.>.T a.q.q.>.a   U.U.wXo H H H H H H H H H H H H H H ",
"H H H H H H H H H H H O 3X@X@X  s b.V #.p p n.*.;.4.7.y M.>.5.8.*.i M.6.9.4.>.T r.7.7.5.a X @X@X8Xo H H H H H H H H H H H H H H ",
"H H H H H H H H H H H O 3X'.|.  p u.K C e e n.*.;.-.7.y M.>.5.8.*.i M.7.8.q.4.T y.7.7.8.a   '.'.yXo H H H H H H H H H H H H H H ",
"H H H H H H H H H H H O 1XU.U.  p w.G N k k n.*.;.*.7.y M.>.4.8.*.u M.7.8.t.4.T y.7.7.4.r   U.U.qXo H H H H H H H H H H H H H H ",
"H H H H H H H H H H H O tXT.R.  p g.V #.p p n.*.*.-.7.y M.*.*.-.-.u M.5.4.e.6.T d.q.q.>.a   !.U.qXo H H H H H H H H H H H H H H ",
"H H H H H H H H H H H O 1X(.(.  p f.>.-.p p m.*.*.-.7.y M.*.-.-.*.u M.t.>.e.6.T r.*.*.-.a   (.(.9Xo H H H H H H H H H H H H H H ",
"H H H H H H H H H H H O 2X#X#X  P h.;.-.i i m.*.*.-.7.y M.>.-.-.-.u M.4.-.e.6.T d.-.-.-.a X $X#X<Xo H H H H H H H H H H H H H H ",
"H H H H H H H H H H H O tXT.T.  g f.-.-.p p N.*.>.>.4.q M.>.*.*.-.u M.5.>.4.t.E y.*.*.=.r   U.R.wXo H H H H H H H H H H H H H H ",
"H H H H H H H H H H H O tXU.R.8 u R j j y y R j T U s y Y j j T T u Y T j s R p R T T s i 9 U.T.wXo H H H H H H H H H H H H H H ",
"H H H H H H H H H H H O >X!.B M.V.Z.M.v.v.v.v.v.c.M.v.c.v.v.v.v.v.v.v.v.V.v.v.Z.v.v.v.v.Z.C.C T.7X  H H H H H H H H H H H H H H ",
"H H H H H H H H H H H O 2X4XL B.&.*.j.1.;.;.;.*.1.l.;.;.;.*.k.<.;.-.;.-.sX>.*.-.=.k.k.<.-.-.K 4XuXo H H H H H H H H H H H H H H ",
"H H H H H H H H H H H O rXI.M V.&. .&.|  . . . . .&. . . .&. . .&.&.&.&.&. . . . .| |  .&.,.N I.wXo H H H H H H H H H H H H H H ",
"H H H H H H H H H H H O tXU.T.8 q q q q i i i i q i u i u i i i i i q u i i i u i i i w q 9 U.Y.qXo H H H H H H H H H H H H H H ",
"H H H H H H H H H H H O >X!.^.  a ) / ^ i i ) W W ^ ~ q ) ~ ^ ~ ~ i ) / ^ / ~ s / W W ~ h   T.U.qXo H H H H H H H H H H H H H H ",
"H H H H H H H H H H H o 6X$X$X  p b.5.>.p p N.X.3.4.=.q B.o.0.7.-.i M.5.3.9.4.T y.;.;.*.f X $X#X<Xo H H H H H H H H H H H H H H ",
"H H H H H H H H H H H O 3X_._.  P g.5.o.p p n.-.6.5.>.q M.4.5.8.3.y v.-.7.9.6.E y.*.*.*.a   (._.8Xo H H H H H H H H H H H H H H ",
"H H H H H H H H H H H O tX!.!.  p g.6.t.P P n.3.7.*.*.y N.o.4.0.3.y M.-.9.3.>.E r.*.*.*.a   !.U.qXo H H H H H H H H H H H H H H ",
"H H H H H H H H H H H O 8XU.U.  p c.>.q.p p n.3.5.-.-.q N.e.6.7.q.y M.>.>.*.>.E y.-.-.-.h   U.U.9XX H H H H H H H H H H H H H H ",
"H H H H H H H H H H H v {.D S.X 0 O.' { 0 0 +...{ ] ' 4 +.{ ] | X.4 8.] ] ] | r O.' ' ' 8   D D [.3 H H H H H H H H H H H H H H ",
"H H H H H H H H H H H H                                                                           H H H H H H H H H H H H H H H ",
"H H H H H H H H H H H H H H H H H H H H H H H H H H H H H H H H H H H H H H H H H H H H H H H H H H H H H H H H H H H H H H H H ",
"H H H H H H H H H H H H H H H H H H H H H H H H H H H H H H H H H H H H H H H H H H H H H H H H H H H H H H H H H H H H H H H H ",
"H H H H H H H H H H H H H H H H H H H H H H H H H H H H H H H H H H H H H H H H H H H H H H H H H H H H H H H H H H H H H H H H ",
"H H H H H H H H H H H H H H H H H H H H H H H H H H H H H H H H H H H H H H H H H H H H H H H H H H H H H H H H H H H H H H H H ",
"H H H H H H H H H H H H H H H H H H H H H H H H H H H H H H H H H H H H H H H H H H H H H H H H H H H H H H H H H H H H H H H H ",
"H H H H H H H H H H H H H H H H H H H H H H H H H H H H H H H H H H H H H H H H H H H H H H H H H H H H H H H H H H H H H H H H ",
"H H H H H H H H H H H H H H H H H H H H H H H H H H H H H H H H H H H H H H H H H H H H H H H H H H H H H H H H H H H H H H H H ",
"H H H H H H H H H H H H H H H H H H H H H H H H H H H H H H H H H H H H H H H H H H H H H H H H H H H H H H H H H H H H H H H H ",
"H H H H H H H H H H H H H H H H H H H H H H H H H H H H H H H H H H H H H H H H H H H H H H H H H H H H H H H H H H H H H H H H ",
"H H H H H H H H H H H H H H H H H H H H H H H H H H H H H H H H H H H H H H H H H H H H H H H H H H H H H H H H H H H H H H H H "
};
