/* XPM */
static char *a4481f1695814793d4904527abc03a54LQx35D6m59jDNwwe[] = {
/* columns rows colors chars-per-pixel */
"64 64 226 2 ",
"   c #010404",
".  c #000806",
"X  c #010509",
"o  c #010B0C",
"O  c #0D0E0B",
"+  c #001616",
"@  c #0A1117",
"#  c #001718",
"$  c #001919",
"%  c #041A18",
"&  c #20231E",
"*  c #081A27",
"=  c #1B2426",
"-  c #022F31",
";  c #033437",
":  c #25282B",
">  c #2A2D2C",
",  c #332B29",
"<  c #27332E",
"1  c #2B322F",
"2  c #262E32",
"3  c #2A2E31",
"4  c #302E3A",
"5  c #243337",
"6  c #2C3233",
"7  c #561E04",
"8  c #6C1C00",
"9  c #721D00",
"0  c #552203",
"q  c #5A2203",
"w  c #592309",
"e  c #5A2C15",
"r  c #5C2D1A",
"t  c #583519",
"y  c #6C2401",
"u  c #6D2A01",
"i  c #672808",
"p  c #742500",
"a  c #7A2600",
"s  c #742902",
"d  c #7A2A02",
"f  c #763105",
"g  c #642F12",
"h  c #653314",
"j  c #62331A",
"k  c #763614",
"l  c #4E3024",
"z  c #763C24",
"x  c #4D4E38",
"c  c #664A37",
"v  c #7D4830",
"b  c #064946",
"n  c #005658",
"m  c #325554",
"M  c #3C5A5D",
"N  c #385C62",
"B  c #30696B",
"V  c #387A7A",
"C  c #44575D",
"Z  c #445B5D",
"A  c #535755",
"S  c #605E59",
"D  c #5A655C",
"F  c #60615A",
"G  c #776554",
"H  c #465D61",
"J  c #5B6263",
"K  c #517675",
"L  c #686A67",
"P  c #757A75",
"I  c gray50",
"U  c #852C01",
"Y  c #8B360D",
"T  c #863A14",
"R  c #8C3E16",
"E  c #8C3E19",
"W  c #8F4017",
"Q  c #8C421B",
"!  c #98461A",
"~  c #A64816",
"^  c #9A4C27",
"/  c #9A5626",
"(  c #9C502C",
")  c #894C31",
"_  c #995130",
"`  c #A34E2A",
"'  c #A3542B",
"]  c #AB532B",
"[  c #A6592C",
"{  c #B3592E",
"}  c #A55633",
"|  c #B65D37",
" . c #A5623C",
".. c #BA663A",
"X. c #BC653C",
"o. c #C76535",
"O. c #C4663B",
"+. c #C4693C",
"@. c #D66D35",
"#. c #D86E36",
"$. c #D46F3C",
"%. c #D96D39",
"&. c #D67136",
"*. c #D77138",
"=. c #895A48",
"-. c #985C48",
";. c #94674E",
":. c #9C604D",
">. c #866250",
",. c #936750",
"<. c #BB6642",
"1. c #B86846",
"2. c #BC6A44",
"3. c #B56A4D",
"4. c #BD6B4B",
"5. c #A76F56",
"6. c #B86E55",
"7. c #B67559",
"8. c #B47A62",
"9. c #C36B44",
"0. c #C46B46",
"q. c #CB6D44",
"w. c #D46E43",
"e. c #D96E43",
"r. c #CA7246",
"t. c #CF7349",
"y. c #D47144",
"u. c #D87646",
"i. c #D47750",
"p. c #E57D4A",
"a. c #C37E62",
"s. c #5A817D",
"d. c #74837C",
"f. c #B78571",
"g. c #D18A59",
"h. c #E78348",
"j. c #ED854D",
"k. c #ED8B4D",
"l. c #F48444",
"z. c #FE8446",
"x. c #F1854C",
"c. c #FB854A",
"v. c #F4894C",
"b. c #FB8A4C",
"n. c #E58553",
"m. c #EC8A53",
"M. c #E98957",
"N. c #F28452",
"B. c #F38953",
"V. c #F98851",
"C. c #F89858",
"Z. c #FEA15B",
"A. c #CD8E6E",
"S. c #E18E65",
"D. c #E5A669",
"F. c #FFB56F",
"G. c #FFC173",
"H. c #FFC27D",
"J. c #3C9192",
"K. c #428D8F",
"L. c #49918E",
"P. c #5D949A",
"I. c #5C9B9D",
"U. c #6D8D8A",
"Y. c #778788",
"T. c #65959A",
"R. c #699599",
"E. c #6C959C",
"W. c #6A999E",
"Q. c #72939C",
"!. c #769B9E",
"~. c #4E9FA7",
"^. c #5D9DA6",
"/. c #589EAA",
"(. c #6396A2",
"). c #6D93A1",
"_. c #639BA3",
"`. c #699CA5",
"'. c #7395A1",
"]. c #44A8A7",
"[. c #57A4A7",
"{. c #5DAEB4",
"}. c #58BABC",
"|. c #69AAAC",
" X c #62ACB3",
".X c #65B5BB",
"XX c #63C1BB",
"oX c #57BCC6",
"OX c #57C4C7",
"+X c #5CCBCC",
"@X c #5ECCD2",
"#X c #59D3D5",
"$X c #63C6CA",
"%X c #76C1C3",
"&X c #68D6DA",
"*X c #75DDDE",
"=X c #71E2DF",
"-X c #6BDDE3",
";X c #6DDBE8",
":X c #5FE5E7",
">X c #51ECEC",
",X c #5CEDED",
"<X c #5CF7F8",
"1X c #67E4E8",
"2X c #63EDED",
"3X c #78E9EA",
"4X c #62F2EF",
"5X c #77F2ED",
"6X c #68EDF3",
"7X c #64F4F3",
"8X c #6AF2F3",
"9X c #64F8F9",
"0X c #888A88",
"qX c #8B8A92",
"wX c #849395",
"eX c #B29383",
"rX c #8FA5A3",
"tX c #BABFBE",
"yX c #C59C87",
"uX c #8CC8B7",
"iX c #FFC482",
"pX c #FDC68B",
"aX c #ECCB94",
"sX c #F5CA92",
"dX c #82E7E5",
"fX c #D6DAD3",
/* pixels */
"I I I I I I I I I I I I I I I I I I I I I I I I I Y.I I 0X0X0XqXeXyXyXyXyXd.I I >.I I I 0X0X0XY.Y.Y.I I I I I Y.>.>.I I I 0X>.>.",
"I I I I I I I I I I I I I I I I I I I I I I Y.Y.A A L.].].].].K [ $.S.d +.-.d.I >.I Y.Y.0XI Y.Y.Y.Y.>.>.I I Y.Y.>.>.I I Y.0X>.>.",
"I I I I I I I I I I I I I I I I I I I I I >.& * >X>X>X[.`.`.wX} z.G.2.d j.^ k I Y.0XY.Y.I I >.>.Y.I I >.>.0XY.Y.0X>.Y.Y.Y.Y.Y.Y.",
"I I I I I I I I I I I I I I I I I I I I A o 3XdX[.[.[.3X_.wXu b.F.B.X.d j.] $.i Y.Y.Y.0X>.>.>.>.Y.I I I >.Y.Y.Y.Y.Y.Y.Y.Y.Y.Y.Y.",
"I I I I I I I I I I I I I I I I I I tX. L.8X<XP.E.).Q.3XI.8 V.z.F.k...p j.] @.+.i Y.>.>.I I Y.I I I >.>.>.I I I I I I Y.Y.Y.Y.0X",
"I I I I I I I I I I I I I I I I I I n <X.XE.T.1X_.E.2   X y c.C./ j...p x.] %.+.d $ I >.Y.Y.Y.Y.I >.>.>.>.>.I I I I I Y.Y.Y.Y.0X",
"I I I I I I I I I I I I I I I I fXb 1X@X^.).E.s.|.o : > l Y z.Z./ m.+.p x.] @.O.s uX- >.Y.0XY.Y.0X0XY.>.Y.Y.0X0X>.I I I Y.Y.0X0X",
"I I I I I I I I I I I I I I I P V $XR. X+Xm m % @ 3 3 > g z.z.Z./ B.w.a j.] @.O.d i %XV Y.Y.Y.Y.0X0XY.Y.Y.Y.Y.Y.>.>.I I I Y.I I ",
"I I I I I I I I I I I I I I A XX|.).).R.m = : 3 3 , 2 > i z.v.D.Q B.y.a x.] @.w.d i E.}.B I I I Y.Y.Y.Y.>.>.I 0X0XY.Y.Y.>.>.>.I ",
"I I I I I I I I I I I I I I 3 5X:X`.R.C = 3 6 3 3 2 3 t u.z.k.D.R N.w.p j.` @.w.p u.x 2XB I I >.Y.Y.Y.Y.>.>.I I 0X0XY.Y.>.Y.>.>.",
"I I I I I I I I I I I I I 0X}.~.[.-XK = 6 3 3 3 3 > 3 g V.z.k.D.E B.w.a j.( @.w.d c.t [.$X; I >.>.I Y.I >.>.Y.Y.I I Y.Y.Y.Y.Y.Y.",
"I I I I I I I I I I I I I d.OX/.Q.U.O 3 3 3 3 3 3 6 > g b.z.v.D.R B.w.a j./ @.$.d v.e `.&X- I I >.I I I Y.Y.Y.Y.I I Y.Y.Y.Y.Y.Y.",
"I I I I I I I I I I I I   V {.W.E.Y.O : 3 3 3 3 3 6 , u b.z.k.D.R B.y.a p.^ @.y.d v.g wXT.*X+ I >.I Y.Y.0X>.Y.Y.I >.Y.Y.Y.Y.0X0X",
"I I I I I I I I I I I I rXJ.$X.X).o 3 3 3 3 3 3 3 3 r j.z.l.H.0.W B.w.a N.] @.$.d v.<.c .X&Xb I I I Y.Y.>.>.Y.0X>.>.Y.Y.0XY.I I ",
"I I I I I I I I I I I I ; +X.X.X5 = 3 3 3 3 3 3 3 3 e j.z.l.iX0.R B.9.d N.] @.$.d c.q.c oX^.7X  I I Y.Y.>.I I 0XI I I Y.>.>.>.I ",
"I I I I I I I I I I I I ; +XE.Q.  2 3 2 3 3 3 3 3 3 e j.z.l.iX0.R B.X.p N.] @.y.d c.y.g K _.7X  I I Y.Y.>.I I I I I I I >.>.I I ",
"I I I I I I I I I I I I ; +XE.Q.  3 2 3 3 3 3 3 3 3 e x.z.l.iX4.T B.X.p N.` @.w.d z.t.q Z W.2X. I I >.>.Y.0XI I 0X0XI >.Y.Y.0X0X",
"I I I I I I I I I I I $ &XE.E.o 6 2 2 3 3 3 3 3 3 3 e x.b.y s u p B.2.a n.( #.O.d c.<.0 C E.E.6Xo >.>.>.Y.0XI I 0XI I >.Y.Y.Y.I ",
"I I I I I I I I I I I + 4X8X8Xo 1 3 3 3 3 3 3 3 3 3 e j.9 b.B.B.! a p p n.( %.O.d v.<.0 K.6X6X9XX 0XY.>.Y.Y.>.I 0XY.>.>.Y.Y.I I ",
"I I I I I I I I I I I + -XR.E.  6 3 3 3 3 3 3 3 3 3 e j.9 V.2.3.n.l.x.Y T Y o.| s v...q M E.T.7X. 0XY.Y.Y.Y.>.>.Y.Y.>.>.Y.Y.I I ",
"I I I I I I I I I I I + -XE.E.  6 3 3 3 3 3 3 3 3 3 e j.d n.1.8.7.1.7.N.j.o.d d s h...7 N R.T.7Xo Y.Y.Y.Y.Y.Y.>.Y.Y.Y.Y.0X>.>.>.",
"I I I I I I I I I I I # -XE.E.  6 3 3 3 3 3 3 3 3 3 e x.l.~ d T ' ' A.1.3.a.p.p.~ ~ ~ i A E.E.7Xo Y.Y.Y.Y.Y.0X>.Y.Y.I I Y.Y.>.>.",
"I I I I I I I I I I I + 2X&X&X. 6 3 3 3 3 3 3 3 3 3 e x.z.l.g.^ u p R R ) 8.<.A.t.$.y.{ U.&X&X9X  I Y.I Y.Y.I I I >.I I Y.Y.Y.I ",
"I I I I I I I I I I I + 1X^._.. 6 3 3 3 3 3 3 3 3 3 e x.z.l.iX4.W M.p p y s f 3.4.1.yX| L I.I.7X. I I I Y.I I I I >.>.I Y.Y.Y.I ",
"I I I I I I I I I I I + -XE.E.  6 3 3 3 3 3 3 3 3 3 e x.z.l.H.0.W B.2.d p.s s p p y 3.} L E.E.7X. >.Y.Y.Y.I I I Y.Y.Y.Y.Y.Y.I I ",
"I I I I I I I I I I I $ ;XQ.E.  6 3 3 3 3 3 3 3 3 3 e j.z.l.H.q.E B.<.d j.( y.d s d y 7 Z E.Q.7X  >.Y.Y.Y.Y.>.0X0X0XY.Y.I Y.I I ",
"I I I I I I I I I I I $ &XI.(.  6 3 3 3 3 3 3 3 3 3 e j.z.l.H.q.R B.<.d j.^ %.9.s B.d 0 M I.(.7X  I I Y.I I >.>.0X0X>.>.I I >.I ",
"I I I I I I I I I I I + ,X=X=X. 6 3 3 3 3 3 3 3 3 3 e x.z.l.iX3.z B.1.a j.' #.+.d z.2.0 K.1X*X<X. >.Y.Y.I >.>.>.I I I >.I I >.>.",
"I I I I I I I I I I I + -XE.R.  6 3 3 3 3 3 3 3 3 3 e x.z.l.pXG c m.<.d x.] @.+.d c.9.0 Z E.(.9XX Y.0XI 0XY.Y.Y.Y.Y.Y.>.>.>.Y.Y.",
"I I I I I I I I I I I + *XE.).. 6 3 3 3 3 3 3 3 3 3 e x.z.l.aXL J S.X.d x.] @.+.d c.q.q Z E.).9Xo 0X0XI Y.Y.Y.Y.Y.Y.>.>.>.>.0XY.",
"I I I I I I I I I I I $ 1XT.(.. 6 3 3 3 3 3 3 3 3 3 e j.z.l.sXL J S.X.a x.] *.O.d c.t.0 N (.T.9Xo Y.I I >.>.Y.Y.Y.Y.0XI >.I Y.Y.",
"I I I I I I I I I I I # <X8X7Xo 1 3 3 3 3 3 3 3 3 3 e j.z.l.pX>.t M.y.a x.] *.w.d c.t.0 K.6X4X9Xo Y.>.>.>.0XY.Y.Y.Y.0XI I I Y.Y.",
"I I I I I I I I I I I $ -XR.E.  6 3 3 3 3 3 3 3 3 3 e j.z.l.iX=.j v.e.d x.] *.e.d c.t.0 H Q.E.7X. Y.Y.>.>.>.Y.Y.Y.I I I I I I Y.",
"I I I I I I I I I I I $ 1XE.R.. 6 3 3 3 3 3 3 3 3 3 e j.z.l.H.:.j v.y.a j.( &.y.d z.q.q M E.R.7X. Y.>.>.I I Y.Y.Y.I >.>.I I I I ",
"I I I I I I I I I I I + 1XE.R.. 6 3 3 3 3 3 3 3 3 3 e j.z.l.H.:.j v.y.a j.( @.w.d c.X.0 M E.E.7X. Y.I I I 0XY.Y.I I >.>.>.>.I I ",
"I I I I I I I I I I I $ ,X+X$Xo 6 3 3 3 3 3 3 3 3 3 e j.z.l.H.-.j v.e.a j.' @.O.d c.r.0 V @X+X7X. Y.Y.I 0X0XY.Y.I I I I >.I I I ",
"I I I I I I I I I I I $ 1X X{.  4 3 3 3 3 3 3 3 3 3 e j.z.l.iX=.r N.y.d x.] @.+.d c.t.q B  X{.9XX >.>.I Y.0X0XI 0XY.>.>.I I Y.Y.",
"I I I I I I I I I I I $ -XE.E.X 6 3 3 3 3 3 3 3 3 3 e j.z.l.sXL S M.y.d x.] @.+.s c.t.q M E.E.7X  >.I I Y.0X0XI Y.Y.>.>.0XI Y.Y.",
"I I I I I I I I I I I $ -XE.E.. 6 3 3 3 3 3 3 3 3 3 e x.z.l.aXL J S.X.a x.{ &.w.d z.t.q C R.E.7X  I Y.Y.Y.Y.>.I Y.Y.Y.>.0XY.Y.Y.",
"I I I I I I I I I I I # 1X^.^.  6 3 3 3 3 3 3 3 3 3 e x.z.l.aXL F M.<.a N.] @.w.d c.r.0 N ^.^.9X. I I Y.Y.Y.>.>.Y.Y.Y.>.0X0XY.Y.",
"I I I I I I I I I I I # ,X2X:Xo 6 3 3 3 3 3 3 3 3 3 e x.z.l.H.-.j k.1.d j.( &.w.d v.X.0 J.2X2X7X  >.>.I I I >.>.I I >.>.Y.Y.I I ",
"I I I I I I I I I I I $ -XE.R.X 6 3 3 3 3 3 3 3 3 3 e j.z.l.iX9.R B.+.a j.( @.+.s c.9.q C ).E.9X. >.I I Y.0X>.Y.0XI >.>.Y.Y.Y.I ",
"I I I I I I I I I I I $ -XE.E.X 6 3 3 3 3 3 3 3 3 3 e j.z.l.H.q.R B.w.a j.( @.+.s l.! i D E.Q.9X. >.Y.Y.Y.Y.Y.Y.0X0X>.>.Y.Y.I I ",
"I I I I I I I I I I I $ -XE.E.. < 3 3 3 3 3 3 3 3 3 e j.z.l.H.q.T B.w.d n.( %.U p U u.+.h Y.T.7X. Y.Y.Y.Y.Y.Y.Y.Y.Y.0XY.Y.Y.>.>.",
"I I I I I I I I I I I $ <X2X2Xo 1 3 3 3 3 3 3 3 3 3 e j.z.l.iXq.E m.9.a u.s d n.j.h.O.2.Q uX4X9XX 0X0XY.Y.Y.0XI Y.Y.Y.Y.I I I >.",
"I I I I I I I I I I I $ 1XI.(.  6 3 3 3 3 3 3 3 3 3 e j.z.l.H.q.E m.9 p U B.v.O.2.1.yX1.Q d.(.4XX I Y.Y.Y.Y.Y.I Y.Y.Y.Y.I I I >.",
"I I I I I I I I I I I $ -X).).  6 3 3 3 3 3 3 3 3 3 e x.b.k.pX' p p m.B.n.1.X.yX7.9.4.s G Q.E.7X. I >.>.Y.Y.I I >.>.I I Y.Y.Y.Y.",
"I I I I I I I I I I I $ -XE.E.  6 3 3 3 3 3 3 3 3 3 e x.x.d d ~ v.B.3.4.5.f.1.1.s s p q H ).E.7XX >.>.>.Y.Y.I I >.>.I I Y.Y.Y.Y.",
"I I I I I I I I I I I $ :XOXoXo 2 3 3 3 3 3 3 3 3 3 e j.p b.p.g.6.1.A.' ( ^ u p d ~ R w V oX}.7X  d.I >.>.I I Y.0XY.Y.Y.Y.Y.0X0X",
"I I I I I I I I I I >.$ ,X#X#Xo 6 3 3 3 3 3 3 3 3 3 e j.9 v.4.7. .` ` d s s ! ! s c.9.w V #X#X9X  d.I I I I Y.Y.I I Y.Y.>.Y.0XI ",
"I I I I I I I I I I Y.$ -XE.).  6 3 3 3 3 3 3 3 3 3 e j.o.! E E f s s d O.! %.$.d c.i.7 Z E.).9X. I I I Y.Y.Y.Y.I I >.>.>.>.I I ",
"I I I I I I I I I Y.Y.$ -X).T.  6 3 3 3 3 3 3 3 3 3 e j.z.h.s p p p...p N.] @.w.d c.0.0 Z R.W.7XX I I I Y.Y.Y.Y.I I I >.>.>.I I ",
"I I I I I I I I I I I + *X!.'.  < 6 6 6 3 3 3 3 3 3 e k.z.c.iXq.E B.w.a x.] %.y.d b.2.w Z !.'.5X. >.Y.Y.0X>.>.>.Y.Y.I I >.>.>.0X",
"I I I I I I I I I I I Y.o   X   . X X . . . . . . . 0 v.z.l.iXq.E B.w.p h.^ @.w.d V.X.w   . X   >.>.Y.Y.>.>.>.>.Y.Y.I I >.>.>.Y.",
"I I I I I I I I f.I I I I I I I Y.Y.I I >.I I I I I ;.j.z.l.iX0.Q B.w.a j.( &.O.d y.=.I I I I I >.I Y.Y.Y.Y.I I Y.Y.Y.0X>.I Y.Y.",
"I I I I I I I I I >.I I I I I I Y.Y.I I >.I I I I I ;.j.z.l.iX0.R B.w.a j.( %...) v >.I I I I I I I Y.Y.Y.0X0XI Y.Y.Y.0X0XI Y.Y.",
"I I I I I I I I I I I I I I I I >.I I I I 0X0XY.Y.Y.,.m.z.l.iX0.R B.q.a j._ ] f.I I I I I I I I I 0X0X0XY.Y.Y.Y.I I >.>.I I Y.Y.",
"I I I I I I I I I I I I I I I I >.>.I I I I 0XY.Y.Y.,.m.b.v.iX0.Q B.<.p p.5.a I I I I I I I I I 0X0XY.Y.Y.Y.Y.Y.I I >.>.I I Y.Y.",
"I I I I I I I I I I I I I I I I Y.0X0X0X>.>.>.0X>.>.,.j.b.v.iX4.E B.<.y v I I I I I I I I I I I I I Y.Y.Y.Y.I I 0XI I I I I I I ",
"I I I I I I I I I I I I I I I I Y.0X0X0X>.>.>.Y.I I ;.j.b.v.iX4.Q v.9 I I I I I I I I I I I I I I Y.Y.Y.0X0X0XI Y.I I I >.>.>.I ",
"I I I I I I I I I I I I I I I I Y.Y.>.>.>.>.Y.Y.I I ;.x.z.l.iX4.) z I I I I I I I I I I I I I I I I Y.Y.Y.Y.>.>.Y.Y.>.I I 0XI I ",
"I I I I I I I I I I I I I I I I I Y.>.I I I Y.Y.0XI >.S.V.k.pX_ I I I I I I I I I I I I I I I I I I Y.I Y.Y.>.>.Y.Y.I >.0X0XI Y.",
"I I I I I I I I I I I I I I I I I I I I Y.Y.Y.Y.Y.Y.Y.G ) ) ) eXI I I I I I I I I I I I I I I I I >.>.I Y.Y.Y.>.Y.Y.>.>.0XY.Y.Y.",
"I I I I I I I I I I I I I I I I I I I I Y.Y.Y.Y.Y.Y.Y.Y.>.>.>.>.I I I I I I I I I I I I I I I I >.>.>.I Y.Y.0X>.Y.Y.>.>.Y.Y.Y.Y."
};
