/* XPM */
static char *_546825d77e84b878576cd5484c397efHRdvNCPovTVCkwnb[] = {
/* columns rows colors chars-per-pixel */
"64 64 14 1 ",
"  c #040404",
". c #181400",
"X c #2C1800",
"o c #002C00",
"O c #3C2404",
"+ c #503008",
"@ c #0C4004",
"# c #244C00",
"$ c #285800",
"% c #306404",
"& c #684014",
"* c gray50",
"= c #3C8008",
"- c #5C9414",
/* pixels */
"********************************@*******************************",
"*******************************@=*******************************",
"*******************************=-*******************************",
"******************************@=-*******************************",
"******************************@--@******************************",
"***************************@@@==-=@*****************************",
"****************************@-=-===@****************************",
"**************************@@=-=--=-=@@**************************",
"***************************=-==-=-===***************************",
"**************************%%=-=-=-=-@o**************************",
"***********************@@@#@-%@-%--@o#@@************************",
"************************@#=o=oo=#%-o%%#*************************",
"***********************#==%%@%%@oo=@==%##***********************",
"**********************@%%#-==%=%o%o%%#=%%@@*********************",
"***********************o#-%%%-=#=#=%=%#=#%**********************",
"****************@****#o#%%##-=#%=%-#%#%=%o******@***************",
"***************@=***%@@o%@o%=%%-%#%=#o%#o@@@***@=***************",
"***************=-**@@#=%#o#%%##-%%#%%#oo=%%#@**=-***************",
"**************@=-*@#%=%=###%@##=#%#@####%==%**@=-***************",
"**************@--@*==%=-%###oo#%@%o#%%%==%%==*@--@**************",
"***********@@@==-=@##=-==%%##oo#o####%=--=%@@@==-=@*************",
"************@-=-===@%%-=%%-######%%##%%==-o#@-=-===@************",
"**********@@=-=--=-=@@=##-=#%=%#%=%%%=%#%=@@=-=--=-=@@**********",
"***********=-==-=-===#@o%=#%=-=%%-=%===###@=-==-=-===***********",
"**********%%=-=-=-=-@oo@=%o=-=%%==-%%#=ooo%%=-=-=-=-@o**********",
"*******@@@#@-%@-%--@o#@@%o#%-%#==%-##o#@@@#@-%@-%--@o#@@********",
"********@#=o=oo=#%-o%%#$@@o==##=%#=%#ooo@#=o=oo=#%-o%%#*********",
"*******#==%%@%%@oo=@==%##$@%oo##$o#%o$o#==%%@%%@oo=@==%##*******",
"******@%%#-==%=%o%o%%#=%%@@oo@o@ooo%o@@%%#-==%=%o%o%%#=%%@@*****",
"*******o#-%%%-=#=#=%=%#=#%=$o@@o@@@o@$=o#-%%%-=#=#=%=%#=#%******",
"*****#o#%%##-=#%=%-#%#%=%o$@$=$@%@$$@#o#%%##-=#%=%-#%#%=%o******",
"****%@@o%@o%=%%-%#%=#o%#o@@@===$=$$=%@@o%@o%=%%-%#%=#o%#o@@@****",
"***@@#=%#o#%%##-%%#%%#oo=%%#@$==%=@@@#=%#o#%%##-%%#%%#oo=%%#@***",
"**@#%=%=###%@##=#%#@####%==%$=$=@$@#%=%=###%@##=#%#@####%==%****",
"***==%=-%###oo#%@%o#%%%==%%==%@=@$===%=-%###oo#%@%o#%%%==%%==***",
"**@##=-==%%##oo#o####%=--=%%##o$oo@##=-==%%##oo#o####%=--=%%##**",
"****%%-=%%-######%%##%%==-o#@  @  $@%%-=%%-######%%##%%==-o#****",
"***@@o=##-=#%=%#%=%%%=%#%=$o$oo ooo@@o=##-=#%=%#%=%%%=%#%=$o$o**",
"*@@$o#@o%=#%=-=%%-=%===###@$$@@oo@@$o#@o%=#%=-=%%-=%===###@$$@@*",
"**$@=oo@=%o=-=%%==-%%#=ooo@oo$@o@@$@=oo@=%o=-=%%==-%%#=ooo@oo$@*",
"*o#=$@@o%o#%-%#==%-##o#@o$$=@@oo$o#=$@@o%o#%-%#==%-##o#@o$$=@@oo",
"*$$$@$@$@@o==##=%#=%#ooo@@$$=@o@$$$$@$@$@@o==##=%#=%#ooo@@$$=@o*",
"oo o$$$=$$@%oo##$o#%o$o@$o@o$$ Xoo o$$$=$$@%oo##$o#%o$o@$o@o$$ *",
"**o$$o===$@oo@o@ooo%o@$@$$$o  o..$o$$o===$@oo@o@ooo%o@$@$$$o  o*",
"*o$$o==$$o=$o@@o@@@o@$==@$@$o@$oOo$$o==$$o=$o@@o@@@o@$==@$@$o@$o",
"**o =@$o@=$@$=$@%@$$@@$=%@oo@@oo**o =@$o@=$@$=$@%@$$@@$=%@oo@@oo",
"**o@o$o@$$@$===$=$$=$$%%=%@@$o****o@o$o@$$@$===$=$$=$$%%=%@@$o**",
"*o$@o@o$o@$=@$==%=@$=@=%$==@$@o**o$@o@o$o@$=@$==%=@$=@=%$==@$@o*",
"oooo@$@oo@=$$=$=@$=@=o$=o @ooo**oooo@$@oo@=$$=$=@$=@=o$=o @ooo**",
"**..$@oo@o@o=%@=@$=o$@  @@o..O****..$@oo@o@o=%@=@$=o$@  @@o..O**",
"*.O@oo@o @oo$oo$oo$=$oooo$$o.+O**.O@oo@o @oo$oo$oo$=$oooo$$o.+O*",
"*&Oo.oo@@o @@  @  $@ o@oo@@oo&***&Oo.oo@@o @@  @  $@ o@oo@@oo&**",
"*+....@@ooo@ooo oooooo@@o@.@O+***+....@@ooo@ooo oooooo@@o@.@O+**",
"*O+..@o.o@$oo@@oo@oo@o@$@o@..O+**O+..@o.o@$oo@@oo@oo@o@$@o@..O+*",
"**OO.o..$$@@@@oo@@o@@o@$$$.O++****OO.o..$$@@@@oo@@o@@o@$$$.O++**",
"**O....@o@@$$@@o$@o@$@@@@o.+OO****O....@o@@$$@@o$@o@$@@@@o.+OO**",
"**O+&O.o.o@$@o@@$$@@$$$.o.O&+*****O+&O.o.o@$@o@@$$@@$$$.o.O&+***",
"***OO..O.@$ooooX.$X.@$o..+O+O******OO..O.@$ooooX.$X.@$o..+O+O***",
"*****O+OO.+......$.....OO+***********O+OO.+......$.....OO+******",
"********+&OO++O.O+.OO+.O****************+&OO++O.O+.OO+.O********",
"************O**O**O**O+*********************O**O**O**O+*********",
"****************************************************************",
"****************************************************************",
"****************************************************************"
};
