/* XPM */
static char *d98d83f1b7864951a2f1fbdd8445d83dGTc1lFSQaTTPKGjk[] = {
/* columns rows colors chars-per-pixel */
"64 64 13 1 ",
"  c black",
". c #3A3838",
"X c #C00000",
"o c red",
"O c #8E4800",
"+ c #FFC000",
"@ c #92D050",
"# c #FFD966",
"$ c #7030A0",
"% c #C3C3C3",
"& c #FFF2CC",
"* c #FFCCFF",
"= c gray95",
/* pixels */
"%%%%%%%%%%%%%%%%%%%%%%%%%%%%%%%%%%%%%%%%%%%%%%%%%%%%%%%%%%%%%%%%",
"%%%%%%%%%%%%%%%%%%%%%%%%%%%%%%%%%%%%%%%%%%%%%%%%%%%%%%%%%%%%%%%%",
"%%%%%%%%%%%%%%%%%%%%%%%%%%%%%%%%%%%%%%%%%%%%%%%%%%%%%%%%%%%%%%%%",
"%%%%%%%%%%%%%%%%%%%%%%%%%%%%%%%%%%%%%%%%%%%%%%%%%%%%%%%%%%%%%%%%",
"%%%%%%%%%%%%%%%%%%%%%%%%%%%%%%%%%%%%%%%%%%%%%%%%%%%%%%%%%%%%%%%%",
"%%%%%%%%%%%%%%%%%%%%%%%%%%%%%%%%%%%%%%%%%%%%%%%%%%%%%%%%%%%%%%%%",
"%%%%%%%%%%%%%%%%%%%%%%%%%%%%%%%%%%%%%%%%%%%%%%%%%%%%%%%%%%%%%%%%",
"%%%%%%%%%%%%%%%%%%%%%%%%%%%%%%%%%%%%%%%%%%%%%%%%%%%%%%%%%%%%%%%%",
"%%%%%%%%%%%%%%%%%%%%%%%%%%%%%%%%%%%%%%%%%%%%%%%%%%%%%%%%%%%%%%%%",
"%%%%%%%%%%%%%%%%%%%%%%%%%%%%%%       %%%%%%%%%%%%%%%%%%%%%%%%%%%",
"%%%%%%%%%%%%%%%%%%%%%%%%%%%           %%%%%%%%%%%%%%%%%%%%%%%%%%",
"%%%%%%%%%%%%%%%%%%%%%%%%%%%           %%%%%%%%%%%%%%%%%%%%%%%%%%",
"%%%%%%%%%%%%%%%%%%%%%%%%         %%   %%%%%%%%%%%%%%%%%%%%%%%%%%",
"%%%%%%%%%%%%%%%%%%%%%%%         %%%   % %%%%%%%%%%%%%%%%%%%%%%%%",
"%%%%%%%%%%%%%%%%%%%%%%          %%%%%  %%%%%%%%%%%%%%%%%%%%%%%%%",
"%%%%%%%%%%%%%%%%%%%%%%          %%%%%  %%%%%%%%%%%%%%%%%%%%%%%%%",
"%%%%%%%%%%%%%%%%%%%%%%          %%%%%%%%%%%%%%%%%%%%%%%%%%%%%%%%",
"%%%%%%%%%%%%%%%%%%%%%  ###++    %%%%%%%%%%%%%%%%%%%%%%%%%%%%%%%%",
"%%%%%%%%%%%%%%%%%%%%%oo#ooo+oooo%%%%%%%%%%%%%%%%%%%%%%%%%%%%%%%%",
"%%%%%%%%%%%%%%%    %%oo#ooo+oooo%%%%%%%%%%%%%%%%%%%%%%%%%%%%%%%%",
"%%%%%%%%%%%%%%%                      %%%%%%%%%%%%%%%%%%%%%%%%%%%",
"%%%%%%%%%%%%%%%%                       %%%%%%%%%%%%%%%%%%%%%%%%%",
"%%%%%%%%%%%%%%%%%%                       %%%%%%%%%%%%%%%%%%%%%%%",
"%%%%%%%%%%%%%%%%%%%%$$@@@@@@@@$$$$$$$%%%%%%%%%%%%%%%%%%%%%%%%%%%",
"%%%%%%%%%%%%%%%%%%%$$$@ @@@@ @@$$$$$$$%%%%%%%%%%%%%%%%%%%%%%%%%%",
"%%%%%%%%%%%%%%%%%%%$$@@ @@@@ @@$@@$$$$$$$%%%%$%%%%%%%%%%%%%%%%%%",
"%%%%%%%%%%%%%%%%%%%$$@*@@@@@@@*@@@$$$$$$$$$$$$%%%%%%%%%%%%%%%%%%",
"%%%%%%%%%%%%%%%%%%%$$@*@@@@@@@*@@@$$$$$$$$$$$%%%%%%%%%%%%%%%%%%%",
"%%%%%%%%%%%%%%%%%%%%$$@ ===& @@@$$$$$$$$$$$%%%%%%%%%%%%%%%%%%%%%",
"%%%%%%%%%%%%%%%%%%%%$$@@    @@@@$$$$$$$$$$$$%%%%%%%%%%%%%%%%%%%%",
"%%%%%%%%%%%%%%%%%%%%%$$@@@@@@@@$$$$$$$$$$$%%%%%%%%%%%%%%%%%%%%%%",
"%%%%%%%%%%%%%%%%%%%%%%$@@@@@@@$$$$$$$$$$$%%%%%%%%%%%%%%%%%%%%%%%",
"%%%%%%%%%%%%%%%%%%%%%%%%       %$$$$$%%%%%%%%%%%%%%%%%%%%%%%%%%%",
"%%%%%%%%%%%%%%%%%%%%%%%%        %%$$$$$%%%%%%%%%%%%%%%%%%%%%%%%%",
"%%%%%%%%%%%%%%%%%%%%%%%@@@      %%%%%%%%%%%%%%%%%%%%%%%%%%%%%%%%",
"%%%%%%%%%%%%%%%%%%%%%%@@@@@      %%%%%%%%%%%%%%%%%%%%%%%%%%%%%%%",
"%%%%%%%%%%%%%%%%%%%%%@@@@@       %%%%%%%%%%%%%%%%%%%%%%%%%%%%%%%",
"%%%%OOO%%%%%%%%%%%%%@@@@%%XXXXXXX%%%%%%%%%%%%%%%%%%%%%%%%%%%%%%%",
"%%%%OOO%%%%%%%%%%%%%@@@@%%XXXXXXX%%%%%%%%%%%%%%%%%%%%%%%%%%%%%%%",
"%%OOOOOOOO%%%%%%%%%@@@@%%%        %%%%%%%%%%%%%%%%%%%%%%%%%%%%%%",
"%%%%%OOOOOOOO%%%%%@@@@%           %%%%%%%%%%++++++%%%%%%%%%%%%%%",
"%%%%%%%%OOOOOOOO%@@@@%%           %%%%%%%%+++++++++++%%%%%%%%%%%",
"%%%%%%%%%%%%OOOOOO@@OO@@@@@       %+++%%%+++++++++++++++%%%%%%+%",
"%%%%%%%%%%%%%OOOOOOOOO@@@@@       %++++%++++++++++++++++++++++%%",
"%%%%%%%%%%%%%%%%%OOOOO@@@@@     OOO++++o+++++++++++++++++++++%%%",
"%%%%%%%%%%%%%%%%%%%%%%@@@@O    OOOO++++o++++++++++++++++++++%%%%",
"%%%%%%%%%%%%%%%%%%%%%%@@@@%@@%%%%%%++++%+++++++++++++++++++%%%%%",
"%%%%%%%%%%%%%%%%%%%%%%@@@@%..%%%%%%+++%%%+++++++++++++++%%%%%%%%",
"%%%%%%%%%%%%%%%%%%%%%%    ...%%%%%%%%%%%%%%+++++++++++%%%%%%%%%%",
"%%%%%%%%%%%%%%%%%%%%%     ...%%%%%%%%%%%%%%+++++++++++%%%%%%%%%%",
"%%%%%%%%%%%%%%%%%%%%%     ...%%%%%%%%%%%%%%%%+++++++%%%%%%%%%%%%",
"%%%%%%%%%%%%%%%%%%%%%     %%%%%%%%%%%%%%%%%%%%%%%%%%%%%%%%%%%%%%",
"%%%%%%%%%%%%%%%%%%%%%%%%%%%%%%%%%%%%%%%%%%%%%%%%%%%%%%%%%%%%%%%%",
"%%%%%%%%%%%%%%%%%%%%%%%%%%%%%%%%%%%%%%%%%%%%%%%%%%%%%%%%%%%%%%%%",
"%%%%%%%%%%%%%%%%%%%%%%%%%%%%%%%%%%%%%%%%%%%%%%%%%%%%%%%%%%%%%%%%",
"%%%%%%%%%%%%%%%%%%%%%%%%%%%%%%%%%%%%%%%%%%%%%%%%%%%%%%%%%%%%%%%%",
"%%%%%%%%%%%%%%%%%%%%%%%%%%%%%%%%%%%%%%%%%%%%%%%%%%%%%%%%%%%%%%%%",
"%%%%%%%%%%%%%%%%%%%%%%%%%%%%%%%%%%%%%%%%%%%%%%%%%%%%%%%%%%%%%%%%",
"%%%%%%%%%%%%%%%%%%%%%%%%%%%%%%%%%%%%%%%%%%%%%%%%%%%%%%%%%%%%%%%%",
"%%%%%%%%%%%%%%%%%%%%%%%%%%%%%%%%%%%%%%%%%%%%%%%%%%%%%%%%%%%%%%%%",
"%%%%%%%%%%%%%%%%%%%%%%%%%%%%%%%%%%%%%%%%%%%%%%%%%%%%%%%%%%%%%%%%",
"%%%%%%%%%%%%%%%%%%%%%%%%%%%%%%%%%%%%%%%%%%%%%%%%%%%%%%%%%%%%%%%%",
"%%%%%%%%%%%%%%%%%%%%%%%%%%%%%%%%%%%%%%%%%%%%%%%%%%%%%%%%%%%%%%%%",
"%%%%%%%%%%%%%%%%%%%%%%%%%%%%%%%%%%%%%%%%%%%%%%%%%%%%%%%%%%%%%%%%"
};
