/* XPM */
static char *a3897ce35e784d8df700291122ba8a42wNvkUsAOEoOXlJ85[] = {
/* columns rows colors chars-per-pixel */
"64 64 5 1 ",
"  c black",
". c #757171",
"X c #FFC000",
"o c #C3C3C3",
"O c #FFCCFF",
/* pixels */
"oooooooooooooooooooooooooooooooooooooooooooooooooooooooooooooooo",
"oooooooooooooooooooooooooooooooooooooooooooooooooooooooooooooooo",
"oooooooooooooooooooooooooooooooooooooooooooooooooooooooooooooooo",
"oooooooooooooooooooooooooooooooooooooooooooooooooooooooooooooooo",
"oooooooooooooooooooooooooooooooooooooooooooooooooooooooooooooooo",
"oooooooooooooooooooooooooooooooooooooooooooooooooooooooooooooooo",
"oooooooooooooooooooooooooooooooooooooooooooooooooooooooooooooooo",
"oooooooooooooooooooooooooooooooooooooooooooooooooooooooooooooooo",
"oooooooooooooooooooooooooooooooooooooooooooooooooooooooooooooooo",
"oooooooooooooooooooooooooooooooooooooooooooooooooooooooooooooooo",
"oooooooooooooooooooooooooooooooooooooooooooooooooooooooooooooooo",
"oooooooooooooooooooooooooooooooooooooooooooooooooooooooooooooooo",
"oooooooooooooooooooooooooooooooooooooooooooooooooooooooooooooooo",
"oooooooooooooooooooooooooooooooooooooooooooooooooooooooooooooooo",
"oooooooooooooooooooooooooooooooooooooooooooooooooooooooooooooooo",
"oooooooooooooooooooooooooooooooooooooooooooooooooooooooooooooooo",
"oooooooooooooooooooooooooooooooooooooooooooooooooooooooooooooooo",
"oooooooooooooooooooooooooooooooooooooooooooooooooooooooooooooooo",
"oooooooooooooooooooooooooooooooooooooooooooooooooooooooooooooooo",
"oooooooooooooooooooooooooooooooooooooooooooooooooooooooooooooooo",
"oooooooooooooooooooooooooooooooooooooooooooooooooooooooooooooooo",
"oooooooooooooooooooooooooooooooooooooooooooooooooooooooooooooooo",
"oooooooooooooooooooooooooooooooooooooooooooooooooooooooooooooooo",
"oooooooooooooooooooooooooooooooooooooooooooooooooooooooooooooooo",
"oooooooooooooooooooooooooooooooooooooooooooooooooooooooooooooooo",
"oooooooooooooooooooooooooooooooooooooooooooooooooooooooooooooooo",
"oooooooooooooooooooooooooooooooooooooooooooooooooooooooooooooooo",
"oooooooooooooooooooooooooooooooooooooooooooooooooooooooooooooooo",
"oooooooooooooooooooooooooooooooooooooooooooooooooooooooooooooooo",
"oooooooooooooooooooooooooooooooooooooooooooooooooooooooooooooooo",
"oooooooooooooooooooooooooooooooooooooooooooooooooooooooooooooooo",
"oooooooooooooooooooooooooooooooooooooooooooooooooooooooooooooooo",
"oooooooooooooooooooooooooooooooooooooooooooooooooooooooooooooooo",
"oooooooooooooooooooooooooooooooooooooooooooooooooooooooooooooooo",
"oooooooooooooooooooooooooooooooooooooooooooooooooooooooooooooooo",
"oooooooooooooooooooooooooooooooooooooooooooooooooooooooooooooooo",
"oooooooooooooooooooooooooooooooooooooooooooooooooooooooooooooooo",
"oooooooooooooooooooooo   oooooo   oooooooooooooooooooooooooooooo",
"ooooooooooooooooooooo O..      ..O ooooooooooooooooooooooooooooo",
"ooooooooooooooooooooo OO........OO ooooooooooooooooooooooooooooo",
"ooooooooooooooooooooo ............ ooooooooooooooooooooooooooooo",
"ooooooooooooooooooooo ............ ooooooooooooooooooooooooooooo",
"ooooooooooooooooooooo ............ ooooooooooooooooooooooooooooo",
"ooooooooooooooooooooo ...X....X... ooooooooooooooooooooooooooooo",
"ooooooooooooooooooo   ... .  . ...   ooooooooooooooooooooooooooo",
"ooooooooooooooooooooo ............ ooooooooooooooooooooooooooooo",
"ooooooooooooooooooo   ............   ooooooooooooooooooooooooooo",
"ooooooooooooooooooooo   ........   ooooooooooooooooooooooooooooo",
"ooooooooooooooooooooooo ........ oooooo    ooooooooooooooooooooo",
"oooooooooooooooooooooooo ...... oooooo .... oooooooooooooooooooo",
"oooooooooooooooooooooooo .......  ooo ..... oooooooooooooooooooo",
"oooooooooooooooooooooooo ........  o ..    ooooooooooooooooooooo",
"oooooooooooooooooooooooo .......... .. ooooooooooooooooooooooooo",
"oooooooooooooooooooooooo ............  ooooooooooooooooooooooooo",
"oooooooooooooooooooooooo ............ oooooooooooooooooooooooooo",
"oooooooooooooooooooooooo ..  .. ...  ooooooooooooooooooooooooooo",
"ooooooooooooooooooooooooo          ooooooooooooooooooooooooooooo",
"oooooooooooooooooooooooooooooooooooooooooooooooooooooooooooooooo",
"oooooooooooooooooooooooooooooooooooooooooooooooooooooooooooooooo",
"oooooooooooooooooooooooooooooooooooooooooooooooooooooooooooooooo",
"oooooooooooooooooooooooooooooooooooooooooooooooooooooooooooooooo",
"oooooooooooooooooooooooooooooooooooooooooooooooooooooooooooooooo",
"oooooooooooooooooooooooooooooooooooooooooooooooooooooooooooooooo",
"oooooooooooooooooooooooooooooooooooooooooooooooooooooooooooooooo"
};
