/* XPM */
static char * image_xpm[] = {
"49 49 13 1",
"! c #84653aff",
"# c #0c4004",
"$ c #3c8008",
"% c #5c9414",
"& c #244c00",
"' c #306404",
"( c #002c00",
") c #285800",
"* c #040404",
"+ c #181400",
", c #2c1800",
"- c #743414",
". c #5c0400",
"!!!!!!!!!!!!!!!!!!!!!!!!!!!!!!!!!!!!!!!!!!!!!!!!!",
"!!!!!!!!!!!!!!!!!!!!!!!!#!!!!!!!!!!!!!!!!!!!!!!!!",
"!!!!!!!!!!!!!!!!!!!!!!!#$!!!!!!!!!!!!!!!!!!!!!!!!",
"!!!!!!!!!!!!!!!!!!!!!!#$%#!!!!!!!!!!!!!!!!!!!!!!!",
"!!!!!!!!!!!!!!!!!!!!!#$%%$#!!!!!!!!!!!!!!!!!!!!!!",
"!!!!!!!!!!!!!!!!!!!!#$%%%$$#!!!!!!!!!!!!!!!!!!!!!",
"!!!!!!!!!!!!!!!!!!!#$%$%%%%$#!!!!!!!!!!!!!!!!!!!!",
"!!!!!!!!!!!!!!!!!!#$%$%%$%%$$#!!!!!!!!!!!!!!!!!!!",
"!!!!!!!!!!!!!!!!!!!#$%$%$%%%#!!!!!!!!!!!!!!!!!!!!",
"!!!!!!!!!!!!!!!!!!&#%##%#%%#'&!!!!!!!!!!!!!!!!!!!",
"!!!!!!!!!!!!!!!!!&$'#''#'#%#$'&!!!!!!!!!!!!!!!!!!",
"!!!!!!!!!!!!!!!!$$'$$'$'$'#''$'&!!!!!!!!!!!!!!!!!",
"!!!!!!!!!!!!!!!&'&%''%$'$'$'$&$'&!!!!!!!!!!!!!!!!",
"!!!!!!!!!!!!!!#'&%'&%$'%'&%&''&''#!!!!!!!!!!!!!!!",
"!!!!!!!!!!!!!!!(''&'$'&%'&'$&&&'&'#!!!!!!!!!!!!!!",
"!!!!!!!!!!!!!!!&'#(''&&$&&&''((&(!!!!!!!!!!!!!!!!",
"!!!!!!!!!!!!!&$'&&&'#(('#((#'&&&$'!!!!!!!!!!!!!!!",
"!!!!!!!!!!!!'$'$'&&&&&&&&''&&''$'$'&!!!!!!!!!!!!!",
"!!!!!!!!!!!$$'$%$''&'$'&'$''&'$%$'$'!!!!!!!!!!!!!",
"!!!!!!!!!!#&&$%$''%'$%$''%$$'''$%$'$$!!!!!!!!!!!!",
"!!!!!!!!!!!!''%$&%$$%$''$$%'$$'&$%''&&!!!!!!!!!!!",
"!!!!!!!!!!!!!($&($&'%'&$$'%&'$$&$$(&!!!!!!!!!!!!!",
"!!!!!!!!!!!!(&#($'($$&&$'&$'&($((&((!!!!!!!!!!!!!",
"!!!!!!!!!!!(#((#'((&((&&((&#((&#((##(!!!!!!!!!!!!",
"!!!!!!!!!!!)#(#)(##((#(#(((((#((##))#(!!!!!!!!!!!",
"!!!!!!!!!!)#$#)))#)(###()#(###(#))#))#!!!!!!!!!!!",
"!!!!!!!!!(&$)#)#$))#)#)#)#))#))$))$##))!!!!!!!!!!",
"!!!!!!!!!)))())$))))$#))))))$#)$##)$#(((!!!!!!!!!",
"!!!!!!!!((*())()#)#$#))$#$#))$#)$#())*!!!!!!!!!!!",
"!!!!!!!!!!())($)(#$))))$#)$#)#$())(**(!!!!!!!!!!!",
"!!!!!!!!!!!(*##*(#)()(#$#)$()()$*##(#)(!!!!!!!!!!",
"!!!!!!!!!!!(#(*(#*#*)(()(()$*#**(((((#)(!!!!!!!!!",
"!!!!!!!!!!()#(#((((#(**#**)#((((###)##((!!!!!!!!!",
"!!!!!!!!!()#(###(#(((((((((((#(#))#))(!!!!!!!!!!!",
"!!!!!!!!((((#))(#)(##((#((##(#)###(#))(!!!!!!!!!!",
"!!!!!!!!!!++)#+()##))(()#(#)##))(+((((!!!!!!!!!!!",
"!!!!!!!!!+!#((+)##))###))##))###)++++!!!!!!!!!!!!",
"!!!!!!!!!!!(++#((#)(((,#),(#))+((+++!!!!!!!!!!!!!",
"!!!!!!!!!!++++(+#)(++,,(),++((++++++!!!!!!!!!!!!!",
"!!!!!!!!!!!+++++++++-.-.(.-++++++++++!!!!!!!!!!!!",
"!!!!!!!!!!!!+++++++-.,-.-,.-++++++!!!!!!!!!!!!!!!",
"!!!!!!!!!!!++++++++++-.+.-+++++++++!!!!!!!!!!!!!!",
"!!!!!!!!!!!!!!++++++++++++++++++!+!!!!!!!!!!!!!!!",
"!!!!!!!!!!!!!++!+++++++++++++++++!!!!!!!!!!!!!!!!",
"!!!!!!!!!!!!!!!!!+!+!++++!++!++!!!!!!!!!!!!!!!!!!",
"!!!!!!!!!!!!!!!!!!!!!!!+!!+!!!+!!!!!!!!!!!!!!!!!!",
"!!!!!!!!!!!!!!!!!!!!!!!!!!!!!!!!!!!!!!!!!!!!!!!!!",
"!!!!!!!!!!!!!!!!!!!!!!!!!!!!!!!!!!!!!!!!!!!!!!!!!",
"!!!!!!!!!!!!!!!!!!!!!!!!!!!!!!!!!!!!!!!!!!!!!!!!!",
};