/* XPM */
static char *f4f8055c34d34d2dec22004ca4527486ayKT9aFnL8SWcm2z[] = {
/* columns rows colors chars-per-pixel */
"64 64 13 1 ",
"  c black",
". c #3A3838",
"X c #C00000",
"o c red",
"O c #8E4800",
"+ c #FFC000",
"@ c #92D050",
"# c #FFD966",
"$ c #7030A0",
"% c #C3C3C3",
"& c #FFF2CC",
"* c #FFCCFF",
"= c gray95",
/* pixels */
"%%%%%%%%%%%%%%%%%%%%%%%%%%%%%%%%%%%%%%%%%%%%%%%%%%%%%%%%%%%%%%%%",
"%%%%%%%%%%%%%%%%%%%%%%%%%%%%%%%%%%%%%%%%%%%%%%%%%%%%%%%%%%%%%%%%",
"%%%%%%%%%%%%%%%%%%%%%%%%%%%%%%%%%%%%%%%%%%%%%%%%%%%%%%%%%%%%%%%%",
"%%%%%%%%%%%%%%%%%%%%%%%%%%%%%%%%%%%%%%%%%%%%%%%%%%%%%%%%%%%%%%%%",
"%%%%%%%%%%%%%%%%%%%%%%%%%%%%%%%%%%%%%%%%%%%%%%%%%%%%%%%%%%%%%%%%",
"%%%%%%%%%%%%%%%%%%%%%%%%%%%%%%%%%%%%%%%%%%%%%%%%%%%%%%%%%%%%%%%%",
"%%%%%%%%%%%%%%%%%%%%%%%%%%%%%%%%%%%%%%%%%%%%%%%%%%%%%%%%%%%%%%%%",
"%%%%%%%%%%%%%%%%%%%%%%%%%%%%%%%%%%%%%%%%%%%%%%%%%%%%%%%%%%%%%%%%",
"%%%%%%%%%%%%%%%%%%%%%%%%%%%%%%%%%%%%%%%%%%%%%%%%%%%%%%%%%%%%%%%%",
"%%%%%%%%%%%%%%%%%%%%%%%%%%%       %%%%%%%%%%%%%%%%%%%%%%%%%%%%%%",
"%%%%%%%%%%%%%%%%%%%%%%%%%%           %%%%%%%%%%%%%%%%%%%%%%%%%%%",
"%%%%%%%%%%%%%%%%%%%%%%%%%%           %%%%%%%%%%%%%%%%%%%%%%%%%%%",
"%%%%%%%%%%%%%%%%%%%%%%%%%%   %%         %%%%%%%%%%%%%%%%%%%%%%%%",
"%%%%%%%%%%%%%%%%%%%%%%%% %   %%%         %%%%%%%%%%%%%%%%%%%%%%%",
"%%%%%%%%%%%%%%%%%%%%%%%%%  %%%%%          %%%%%%%%%%%%%%%%%%%%%%",
"%%%%%%%%%%%%%%%%%%%%%%%%%  %%%%%          %%%%%%%%%%%%%%%%%%%%%%",
"%%%%%%%%%%%%%%%%%%%%%%%%%%%%%%%%          %%%%%%%%%%%%%%%%%%%%%%",
"%%%%%%%%%%%%%%%%%%%%%%%%%%%%%%%%    ++###  %%%%%%%%%%%%%%%%%%%%%",
"%%%%%%%%%%%%%%%%%%%%%%%%%%%%%%%%oooo+ooo#oo%%%%%%%%%%%%%%%%%%%%%",
"%%%%%%%%%%%%%%%%%%%%%%%%%%%%%%%%oooo+ooo#oo%%    %%%%%%%%%%%%%%%",
"%%%%%%%%%%%%%%%%%%%%%%%%%%%                      %%%%%%%%%%%%%%%",
"%%%%%%%%%%%%%%%%%%%%%%%%%                       %%%%%%%%%%%%%%%%",
"%%%%%%%%%%%%%%%%%%%%%%%                       %%%%%%%%%%%%%%%%%%",
"%%%%%%%%%%%%%%%%%%%%%%%%%%%$$$$$$$@@@@@@@@$$%%%%%%%%%%%%%%%%%%%%",
"%%%%%%%%%%%%%%%%%%%%%%%%%%$$$$$$$@@ @@@@ @$$$%%%%%%%%%%%%%%%%%%%",
"%%%%%%%%%%%%%%%%%%$%%%%$$$$$$$@@$@@ @@@@ @@$$%%%%%%%%%%%%%%%%%%%",
"%%%%%%%%%%%%%%%%%%$$$$$$$$$$$$@@@*@@@@@@@*@$$%%%%%%%%%%%%%%%%%%%",
"%%%%%%%%%%%%%%%%%%%$$$$$$$$$$$@@@*@@@@@@@*@$$%%%%%%%%%%%%%%%%%%%",
"%%%%%%%%%%%%%%%%%%%%%$$$$$$$$$$$@@@ &=== @$$%%%%%%%%%%%%%%%%%%%%",
"%%%%%%%%%%%%%%%%%%%%$$$$$$$$$$$$@@@@    @@$$%%%%%%%%%%%%%%%%%%%%",
"%%%%%%%%%%%%%%%%%%%%%%$$$$$$$$$$$@@@@@@@@$$%%%%%%%%%%%%%%%%%%%%%",
"%%%%%%%%%%%%%%%%%%%%%%%$$$$$$$$$$$@@@@@@@$%%%%%%%%%%%%%%%%%%%%%%",
"%%%%%%%%%%%%%%%%%%%%%%%%%%%$$$$$%       %%%%%%%%%%%%%%%%%%%%%%%%",
"%%%%%%%%%%%%%%%%%%%%%%%%%$$$$$%%        %%%%%%%%%%%%%%%%%%%%%%%%",
"%%%%%%%%%%%%%%%%%%%%%%%%%%%%%%%%      @@@%%%%%%%%%%%%%%%%%%%%%%%",
"%%%%%%%%%%%%%%%%%%%%%%%%%%%%%%%      @@@@@%%%%%%%%%%%%%%%%%%%%%%",
"%%%%%%%%%%%%%%%%%%%%%%%%%%%%%%%       @@@@@%%%%%%%%%%%%%%%%%%%%%",
"%%%%%%%%%%%%%%%%%%%%%%%%%%%%%%%XXXXXXX%%@@@@%%%%%%%%%%%%%OOO%%%%",
"%%%%%%%%%%%%%%%%%%%%%%%%%%%%%%%XXXXXXX%%@@@@%%%%%%%%%%%%%OOO%%%%",
"%%%%%%%%%%%%%%%%%%%%%%%%%%%%%%        %%%@@@@%%%%%%%%%OOOOOOOO%%",
"%%%%%%%%%%%%%%++++++%%%%%%%%%%           %@@@@%%%%%OOOOOOOO%%%%%",
"%%%%%%%%%%%+++++++++++%%%%%%%%           %%@@@@%OOOOOOOO%%%%%%%%",
"%+%%%%%%+++++++++++++++%%%+++%       @@@@@OO@@OOOOOO%%%%%%%%%%%%",
"%%++++++++++++++++++++++%++++%       @@@@@OOOOOOOOO%%%%%%%%%%%%%",
"%%%+++++++++++++++++++++o++++OOO     @@@@@OOOOO%%%%%%%%%%%%%%%%%",
"%%%%++++++++++++++++++++o++++OOOO    O@@@@%%%%%%%%%%%%%%%%%%%%%%",
"%%%%%+++++++++++++++++++%++++%%%%%%@@%@@@@%%%%%%%%%%%%%%%%%%%%%%",
"%%%%%%%%+++++++++++++++%%%+++%%%%%%..%@@@@%%%%%%%%%%%%%%%%%%%%%%",
"%%%%%%%%%%+++++++++++%%%%%%%%%%%%%%...    %%%%%%%%%%%%%%%%%%%%%%",
"%%%%%%%%%%+++++++++++%%%%%%%%%%%%%%...     %%%%%%%%%%%%%%%%%%%%%",
"%%%%%%%%%%%%+++++++%%%%%%%%%%%%%%%%...     %%%%%%%%%%%%%%%%%%%%%",
"%%%%%%%%%%%%%%%%%%%%%%%%%%%%%%%%%%%%%%     %%%%%%%%%%%%%%%%%%%%%",
"%%%%%%%%%%%%%%%%%%%%%%%%%%%%%%%%%%%%%%%%%%%%%%%%%%%%%%%%%%%%%%%%",
"%%%%%%%%%%%%%%%%%%%%%%%%%%%%%%%%%%%%%%%%%%%%%%%%%%%%%%%%%%%%%%%%",
"%%%%%%%%%%%%%%%%%%%%%%%%%%%%%%%%%%%%%%%%%%%%%%%%%%%%%%%%%%%%%%%%",
"%%%%%%%%%%%%%%%%%%%%%%%%%%%%%%%%%%%%%%%%%%%%%%%%%%%%%%%%%%%%%%%%",
"%%%%%%%%%%%%%%%%%%%%%%%%%%%%%%%%%%%%%%%%%%%%%%%%%%%%%%%%%%%%%%%%",
"%%%%%%%%%%%%%%%%%%%%%%%%%%%%%%%%%%%%%%%%%%%%%%%%%%%%%%%%%%%%%%%%",
"%%%%%%%%%%%%%%%%%%%%%%%%%%%%%%%%%%%%%%%%%%%%%%%%%%%%%%%%%%%%%%%%",
"%%%%%%%%%%%%%%%%%%%%%%%%%%%%%%%%%%%%%%%%%%%%%%%%%%%%%%%%%%%%%%%%",
"%%%%%%%%%%%%%%%%%%%%%%%%%%%%%%%%%%%%%%%%%%%%%%%%%%%%%%%%%%%%%%%%",
"%%%%%%%%%%%%%%%%%%%%%%%%%%%%%%%%%%%%%%%%%%%%%%%%%%%%%%%%%%%%%%%%",
"%%%%%%%%%%%%%%%%%%%%%%%%%%%%%%%%%%%%%%%%%%%%%%%%%%%%%%%%%%%%%%%%",
"%%%%%%%%%%%%%%%%%%%%%%%%%%%%%%%%%%%%%%%%%%%%%%%%%%%%%%%%%%%%%%%%"
};
